<svg width="18" height="18" viewBox="0 0 18 18" fill="none" xmlns="http://www.w3.org/2000/svg">
<path d="M16.4851 17.154L10.2231 10.892C9.7231 11.318 9.14811 11.6477 8.49811 11.881C7.84811 12.1144 7.19477 12.231 6.53811 12.231C4.93677 12.231 3.58144 11.6767 2.47211 10.568C1.36277 9.45871 0.808105 8.10371 0.808105 6.50304C0.808105 4.90238 1.36211 3.54671 2.47011 2.43604C3.57877 1.32471 4.93344 0.769043 6.53411 0.769043C8.13544 0.769043 9.49144 1.32371 10.6021 2.43304C11.7128 3.54238 12.2681 4.89804 12.2681 6.50004C12.2681 7.19471 12.1451 7.86704 11.8991 8.51704C11.6524 9.16704 11.3291 9.72304 10.9291 10.185L17.1911 16.446L16.4851 17.154ZM6.53811 11.23C7.86477 11.23 8.98511 10.7734 9.89911 9.86004C10.8124 8.94671 11.2691 7.82638 11.2691 6.49904C11.2691 5.17238 10.8124 4.05238 9.89911 3.13904C8.98577 2.22571 7.86577 1.76904 6.5391 1.76904C5.21244 1.76904 4.09211 2.22571 3.17811 3.13904C2.26477 4.05238 1.80811 5.17238 1.80811 6.49904C1.80811 7.82571 2.26477 8.94571 3.17811 9.85904C4.09144 10.7724 5.21144 11.23 6.53811 11.23Z" fill="#1B1813"/>
</svg>
